<?xml version="1.0" encoding="utf-8"?>
<!-- Generator: Adobe Illustrator 15.0.0, SVG Export Plug-In . SVG Version: 6.00 Build 0)  -->
<!DOCTYPE svg PUBLIC "-//W3C//DTD SVG 1.1//EN" "http://www.w3.org/Graphics/SVG/1.1/DTD/svg11.dtd">
<svg version="1.1" id="Layer_1" xmlns="http://www.w3.org/2000/svg" xmlns:xlink="http://www.w3.org/1999/xlink" x="0px" y="0px"
	 width="720px" height="216px" viewBox="0 0 720 216" enable-background="new 0 0 720 216" xml:space="preserve">
<g>
	<rect x="45.666" y="45.333" width="628.667" height="125.333"/>
	<rect x="51.833" y="50.749" fill="#C70008" width="616.332" height="114.5"/>
	<g>
		<g id="XMLID_3_">
			<g>
				<linearGradient id="SVGID_1_" gradientUnits="userSpaceOnUse" x1="359.9995" y1="128.0537" x2="359.9995" y2="55.9464">
					<stop  offset="0.6196" style="stop-color:#C70008"/>
					<stop  offset="0.6695" style="stop-color:#C8070D"/>
					<stop  offset="0.7413" style="stop-color:#CA1A1A"/>
					<stop  offset="0.8262" style="stop-color:#CD3931"/>
					<stop  offset="0.9204" style="stop-color:#D2644F"/>
					<stop  offset="1" style="stop-color:#D68E6D"/>
				</linearGradient>
				<path fill="url(#SVGID_1_)" d="M665.999,83.199v13.8h-612v-13.8c0-15.05,12.201-27.25,27.26-27.25h557.48
					C653.8,55.949,665.999,68.149,665.999,83.199z"/>
				<path fill="#DB8E6D" d="M665.999,53.669v29.53c0-15.05-12.199-27.25-27.26-27.25H81.259c-15.059,0-27.26,12.2-27.26,27.25
					v-29.53H665.999z"/>
			</g>
		</g>
		<g id="XMLID_4_">
			<g>
				
					<linearGradient id="SVGID_2_" gradientUnits="userSpaceOnUse" x1="360.3193" y1="-385.6108" x2="360.3193" y2="-457.7181" gradientTransform="matrix(1 0 0 -1 0 -297.3301)">
					<stop  offset="0.6196" style="stop-color:#C70008"/>
					<stop  offset="0.7445" style="stop-color:#C00009"/>
					<stop  offset="0.9235" style="stop-color:#AD000B"/>
					<stop  offset="1" style="stop-color:#A3000C"/>
				</linearGradient>
				<path fill="url(#SVGID_2_)" d="M666.319,133.134v-13.8h-612v13.8c0,15.051,12.2,27.25,27.26,27.25h557.48
					C654.118,160.384,666.319,148.185,666.319,133.134z"/>
				<path fill="#A3000C" d="M666.319,162.664v-29.53c0,15.051-12.201,27.25-27.26,27.25H81.579c-15.06,0-27.26-12.199-27.26-27.25
					v29.53H666.319z"/>
			</g>
		</g>
	</g>
	<g>
		<g>
			<g>
				<g id="XMLID_2_">
					<g>
						<polygon points="642.37,76.804 609.97,148.515 597.979,145.755 611.489,116.004 611.999,114.884 611.22,113.924 
							583.47,79.454 592.38,72.114 615.438,100.764 617.448,103.254 618.81,100.354 632.14,71.944 						"/>
						<polygon points="590.608,134.524 585.188,146.993 545.069,146.993 545.069,72.204 556.54,71.424 556.54,132.674 
							556.54,134.684 558.55,134.674 						"/>
						<path d="M532.698,95.384c1.9,4.689,2.861,9.82,2.861,15.25c0,5.471-0.961,10.62-2.861,15.311
							c-1.889,4.68-4.719,8.92-8.389,12.6c-3.689,3.621-7.961,6.41-12.68,8.311c-4.73,1.9-9.861,2.859-15.26,2.859
							c-5.352,0-10.451-0.959-15.141-2.859c-4.689-1.891-8.93-4.689-12.609-8.301c-3.73-3.72-6.592-7.99-8.5-12.67
							c-1.91-4.689-2.881-9.82-2.881-15.25c0-5.391,0.971-10.5,2.881-15.189c1.908-4.681,4.77-8.94,8.488-12.67
							c3.691-3.65,7.932-6.451,12.611-8.33c4.699-1.881,9.799-2.83,15.15-2.83c5.398,0,10.529,0.959,15.26,2.859
							c4.719,1.9,8.99,4.69,12.66,8.301C527.979,86.454,530.81,90.704,532.698,95.384z M515.948,131.344
							c5.141-5.5,7.75-12.46,7.75-20.71c0-8.17-2.629-15.109-7.809-20.63c-5.211-5.55-11.781-8.36-19.52-8.36
							c-7.74,0-14.301,2.801-19.49,8.34c-5.16,5.5-7.781,12.45-7.781,20.65c0,8.25,2.611,15.21,7.75,20.71
							c5.18,5.54,11.74,8.351,19.521,8.351C504.188,139.694,510.778,136.884,515.948,131.344z"/>
						<path d="M450.849,97.774c0,7.539-2.15,13.35-6.59,17.76c-4.369,4.359-10.379,6.57-17.84,6.57h-8.07h-2v2v24.01l-11.809,0.75
							v-75.53h21.879c7.49,0,13.311,2.18,17.779,6.649C448.679,84.464,450.849,90.284,450.849,97.774z M440.099,97.774
							c0-4.471-1.34-8.051-4-10.641c-2.639-2.57-6.289-3.88-10.859-3.88h-6.891h-2v2v24.94v2h2h6.891
							c4.641,0,8.311-1.28,10.91-3.791C438.769,105.864,440.099,102.294,440.099,97.774z"/>
						<path d="M391.62,95.384c1.898,4.689,2.859,9.82,2.859,15.25c0,5.471-0.961,10.62-2.859,15.311
							c-1.891,4.68-4.721,8.92-8.391,12.6c-3.689,3.621-7.961,6.41-12.68,8.311c-4.73,1.9-9.861,2.859-15.26,2.859
							c-5.352,0-10.451-0.959-15.141-2.859c-4.689-1.891-8.939-4.689-12.609-8.301c-3.73-3.72-6.59-7.99-8.5-12.67
							c-1.91-4.689-2.881-9.82-2.881-15.25c0-5.391,0.971-10.5,2.881-15.189c1.91-4.681,4.77-8.951,8.49-12.67
							c3.689-3.65,7.93-6.451,12.609-8.33c4.699-1.881,9.789-2.83,15.15-2.83c5.398,0,10.529,0.959,15.26,2.859
							c4.719,1.9,8.99,4.69,12.66,8.301C386.899,86.454,389.729,90.704,391.62,95.384z M374.87,131.344
							c5.139-5.5,7.75-12.46,7.75-20.71c0-8.17-2.631-15.109-7.811-20.63c-5.211-5.55-11.781-8.36-19.52-8.36
							c-7.74,0-14.301,2.801-19.49,8.34c-5.16,5.49-7.781,12.44-7.781,20.65c0,8.25,2.611,15.21,7.75,20.71
							c5.17,5.54,11.74,8.351,19.521,8.351C363.108,139.694,369.688,136.884,374.87,131.344z"/>
						<polygon points="308.499,72.534 308.499,147.464 264.159,103.384 260.79,100.034 260.749,104.784 260.39,145.524 
							248.62,146.903 248.62,72.714 292.97,116.594 296.39,119.983 296.37,115.164 296.249,74.614 						"/>
						<path d="M234.72,94.993c1.82,4.5,2.75,9.431,2.75,14.641c0,5.25-0.93,10.2-2.75,14.7s-4.531,8.569-8.061,12.1
							c-3.539,3.47-7.641,6.161-12.17,7.981c-4.539,1.818-9.471,2.738-14.65,2.738c-5.139,0-10.029-0.92-14.539-2.738
							c-4.5-1.82-8.58-4.512-12.111-7.971c-3.568-3.58-6.318-7.67-8.148-12.17c-1.84-4.5-2.771-9.42-2.771-14.641
							c0-5.17,0.932-10.08,2.771-14.58c1.83-4.5,4.58-8.59,8.148-12.16c3.541-3.51,7.611-6.199,12.111-8
							c4.5-1.81,9.4-2.72,14.539-2.72c5.18,0,10.111,0.92,14.65,2.75c4.529,1.81,8.631,4.5,12.16,7.96
							C230.188,86.424,232.899,90.493,234.72,94.993z M226.21,109.634c0-7.88-2.541-14.57-7.531-19.891
							c-5.029-5.359-11.369-8.079-18.84-8.079c-7.469,0-13.799,2.71-18.809,8.05c-4.98,5.3-7.5,12.01-7.5,19.92
							c0,7.95,2.51,14.67,7.469,19.98c5,5.34,11.34,8.05,18.84,8.05c7.541,0,13.9-2.71,18.891-8.05
							C223.688,124.304,226.21,117.584,226.21,109.634z"/>
						<polygon points="148.438,73.104 157.03,145.585 145.229,147.175 140.729,112.044 140.019,106.464 137.05,111.243 
							114.599,147.415 91.688,111.474 88.679,106.764 88.009,112.313 83.759,147.493 72.2,145.624 80.349,73.073 113.03,124.993 
							114.739,127.704 116.419,124.974 						"/>
						<path d="M642.37,76.804l-10.23-4.859l-13.33,28.41l-1.361,2.899l-2.01-2.49L592.38,72.114l-8.91,7.34l27.75,34.47l0.779,0.96
							l-0.51,1.12l-13.51,29.751l11.99,2.76L642.37,76.804z M631.188,69.284l13.811,6.56l-33.879,74.979l-15.98-3.67l14.529-31.979
							l-29-36l12-9.89l24.33,30.22L631.188,69.284z"/>
						<path d="M585.188,146.993l5.42-12.469l-32.059,0.149l-2.01,0.01v-2.01v-61.25l-11.471,0.78v74.789H585.188z M593.669,132.504
							l-7.17,16.489h-43.43V70.334l15.471-1.05v63.39L593.669,132.504z"/>
						<path d="M496.37,139.694c-7.781,0-14.342-2.811-19.521-8.351c-5.139-5.5-7.75-12.46-7.75-20.71c0-8.2,2.621-15.15,7.781-20.65
							c5.189-5.539,11.75-8.34,19.49-8.34c7.738,0,14.309,2.811,19.52,8.36c5.18,5.521,7.809,12.46,7.809,20.63
							c0,8.25-2.609,15.21-7.75,20.71C510.778,136.884,504.188,139.694,496.37,139.694z M471.099,110.634
							c0,7.76,2.4,14.21,7.211,19.35c4.811,5.141,10.83,7.711,18.061,7.711c7.279,0,13.318-2.57,18.119-7.711
							c4.811-5.14,7.209-11.59,7.209-19.35c0-7.68-2.42-14.1-7.26-19.26c-4.85-5.16-10.869-7.73-18.068-7.73
							c-7.201,0-13.211,2.57-18.031,7.7C473.509,96.483,471.099,102.914,471.099,110.634z"/>
						<path d="M468.62,138.554c3.68,3.611,7.92,6.41,12.609,8.301c4.689,1.9,9.789,2.859,15.141,2.859
							c5.398,0,10.529-0.959,15.26-2.859c4.719-1.9,8.99-4.689,12.68-8.311c3.67-3.68,6.5-7.92,8.389-12.6
							c1.9-4.69,2.861-9.84,2.861-15.311c0-5.43-0.961-10.561-2.861-15.25c-1.889-4.68-4.719-8.93-8.408-12.609
							c-3.67-3.61-7.941-6.4-12.66-8.301c-4.73-1.9-9.861-2.859-15.26-2.859c-5.352,0-10.451,0.949-15.15,2.83
							c-4.68,1.879-8.92,4.68-12.611,8.33c-3.719,3.729-6.58,7.989-8.488,12.67c-1.91,4.689-2.881,9.799-2.881,15.189
							c0,5.43,0.971,10.561,2.881,15.25C462.028,130.563,464.89,134.834,468.62,138.554z M467.21,81.354
							c3.889-3.861,8.318-6.781,13.27-8.761c4.959-1.989,10.25-2.979,15.891-2.979c5.68,0,11.02,1,16.01,3
							c4.99,2.01,9.43,4.92,13.33,8.74c3.889,3.899,6.85,8.319,8.85,13.279c2,4.95,3,10.29,3,16c0,5.75-1,11.109-3,16.061
							c-2,4.959-4.961,9.379-8.85,13.279c-3.9,3.82-8.34,6.73-13.33,8.74c-4.99,2-10.33,3-16.01,3c-5.641,0-10.932-1-15.891-3
							c-4.951-2.01-9.381-4.92-13.27-8.74c-3.941-3.939-6.92-8.38-8.941-13.33c-2.02-4.96-3.029-10.289-3.029-16.01
							c0-5.68,1.01-10.99,3.029-15.95C460.29,89.733,463.269,85.294,467.21,81.354z"/>
						<path d="M434.759,106.964c2.23-2.15,3.34-5.21,3.34-9.189c0-3.931-1.129-7-3.389-9.211c-2.271-2.209-5.42-3.31-9.471-3.31
							h-6.891v24.94h6.891C429.358,110.194,432.54,109.114,434.759,106.964z M416.349,112.194v-2v-24.94v-2h2h6.891
							c4.57,0,8.221,1.31,10.859,3.88c2.66,2.59,4,6.17,4,10.641c0,4.52-1.33,8.09-3.949,10.629c-2.6,2.511-6.27,3.791-10.91,3.791
							h-6.891H416.349z"/>
						<path d="M416.349,148.114v-24.01v-2h2h8.07c7.461,0,13.471-2.211,17.84-6.57c4.439-4.41,6.59-10.221,6.59-17.76
							c0-7.49-2.17-13.311-6.65-17.791c-4.469-4.47-10.289-6.649-17.779-6.649H404.54v75.53L416.349,148.114z M426.419,124.104
							h-8.07v25.889l-15.809,1V71.334h23.879c7.971,0,14.371,2.42,19.201,7.239c4.818,4.82,7.229,11.23,7.229,19.201
							c0,8.02-2.389,14.409-7.17,19.18C440.89,121.724,434.47,124.104,426.419,124.104z"/>
						<path d="M335.8,89.983c5.189-5.539,11.75-8.34,19.49-8.34c7.738,0,14.309,2.811,19.52,8.36
							c5.18,5.521,7.811,12.46,7.811,20.63c0,8.25-2.611,15.21-7.75,20.71c-5.182,5.54-11.762,8.351-19.58,8.351
							c-7.781,0-14.352-2.811-19.521-8.351c-5.139-5.5-7.75-12.46-7.75-20.71C328.019,102.424,330.64,95.474,335.8,89.983z
							 M373.349,91.374c-4.84-5.16-10.859-7.73-18.059-7.73c-7.201,0-13.211,2.57-18.031,7.7c-4.83,5.14-7.24,11.57-7.24,19.29
							c0,7.76,2.4,14.21,7.211,19.35c4.801,5.141,10.83,7.711,18.061,7.711c7.27,0,13.309-2.57,18.119-7.711
							c4.811-5.14,7.211-11.59,7.211-19.35C380.62,102.954,378.198,96.534,373.349,91.374z"/>
						<path d="M340.149,146.854c4.689,1.9,9.789,2.859,15.141,2.859c5.398,0,10.529-0.959,15.26-2.859
							c4.719-1.9,8.99-4.689,12.68-8.311c3.67-3.68,6.5-7.92,8.391-12.6c1.898-4.69,2.859-9.84,2.859-15.311
							c0-5.43-0.961-10.561-2.859-15.25c-1.891-4.68-4.721-8.93-8.41-12.609c-3.67-3.61-7.941-6.4-12.66-8.301
							c-4.73-1.9-9.861-2.859-15.26-2.859c-5.361,0-10.451,0.949-15.15,2.83c-4.68,1.879-8.92,4.68-12.609,8.33
							c-3.721,3.719-6.58,7.989-8.49,12.67c-1.91,4.689-2.881,9.799-2.881,15.189c0,5.43,0.971,10.561,2.881,15.25
							c1.91,4.68,4.77,8.95,8.5,12.67C331.21,142.165,335.46,144.964,340.149,146.854z M339.399,72.594
							c4.949-1.989,10.25-2.979,15.891-2.979c5.68,0,11.01,1,16,3c5,2.01,9.439,4.92,13.34,8.74c3.889,3.899,6.84,8.319,8.85,13.279
							c2,4.95,3,10.29,3,16c0,5.75-1,11.109-3,16.061c-2.01,4.959-4.961,9.379-8.85,13.279c-3.9,3.82-8.34,6.73-13.34,8.74
							c-4.99,2-10.32,3-16,3c-5.641,0-10.941-1-15.891-3c-4.949-2.01-9.381-4.92-13.279-8.74c-3.932-3.939-6.91-8.38-8.932-13.33
							c-2.02-4.96-3.029-10.289-3.029-16.01c0-5.68,1.01-10.99,3.029-15.95c2.021-4.95,5-9.39,8.932-13.329
							C330.019,77.493,334.45,74.573,339.399,72.594z"/>
						<path d="M308.499,147.464v-74.93l-12.25,2.08l0.121,40.55l0.02,4.819l-3.42-3.39l-44.35-43.88v74.189l11.77-1.379l0.359-40.74
							l0.041-4.75l3.369,3.35L308.499,147.464z M262.37,147.294l-15.75,1.859V67.924l47.75,47.25l-0.121-42.25l16.25-2.75v82.101
							l-47.75-47.48L262.37,147.294z"/>
						<path d="M199.839,83.664c-6.93,0-12.709,2.47-17.35,7.42c-4.641,4.94-6.959,11.13-6.959,18.55c0,7.46,2.309,13.67,6.93,18.609
							c4.629,4.951,10.42,7.421,17.379,7.421c7,0,12.811-2.47,17.43-7.421c4.621-4.939,6.941-11.149,6.941-18.609
							c0-7.391-2.33-13.561-6.99-18.52C212.56,86.144,206.769,83.664,199.839,83.664z M181.03,89.714
							c5.01-5.34,11.34-8.05,18.809-8.05c7.471,0,13.811,2.72,18.84,8.079c4.99,5.32,7.531,12.011,7.531,19.891
							c0,7.95-2.521,14.67-7.48,19.98c-4.99,5.34-11.35,8.05-18.891,8.05c-7.5,0-13.84-2.71-18.84-8.05
							c-4.959-5.311-7.469-12.03-7.469-19.98C173.53,101.724,176.05,95.014,181.03,89.714z"/>
						<path d="M184.55,73.034c4.77-1.91,9.859-2.86,15.289-2.86c5.461,0,10.59,0.96,15.4,2.89c4.801,1.93,9.07,4.73,12.82,8.41
							c3.75,3.74,6.59,8,8.52,12.77c1.92,4.761,2.891,9.9,2.891,15.391c0,5.54-0.971,10.689-2.891,15.45
							c-1.93,4.771-4.77,9.03-8.52,12.771c-3.75,3.68-8.02,6.48-12.82,8.41c-4.811,1.93-9.939,2.889-15.4,2.889
							c-5.43,0-10.52-0.959-15.289-2.889c-4.76-1.93-9.02-4.73-12.77-8.41c-3.781-3.781-6.65-8.061-8.592-12.82
							c-1.949-4.771-2.92-9.9-2.92-15.4c0-5.46,0.971-10.57,2.92-15.34c1.941-4.76,4.811-9.04,8.592-12.82
							C175.53,77.754,179.79,74.944,184.55,73.034z M199.839,72.174c-5.139,0-10.039,0.91-14.539,2.72
							c-4.5,1.801-8.57,4.49-12.111,8c-3.568,3.57-6.318,7.66-8.148,12.16c-1.84,4.5-2.771,9.41-2.771,14.58
							c0,5.221,0.932,10.141,2.771,14.641c1.83,4.5,4.58,8.59,8.148,12.17c3.531,3.459,7.611,6.15,12.111,7.971
							c4.51,1.818,9.4,2.738,14.539,2.738c5.18,0,10.111-0.92,14.65-2.738c4.529-1.82,8.631-4.512,12.17-7.981
							c3.529-3.53,6.24-7.6,8.061-12.1s2.75-9.45,2.75-14.7c0-5.21-0.93-10.141-2.75-14.641s-4.531-8.569-8.07-12.109
							c-3.529-3.46-7.631-6.15-12.16-7.96C209.95,73.094,205.019,72.174,199.839,72.174z"/>
						<path d="M157.03,145.585l-8.592-72.48l-32.02,51.869l-1.68,2.73l-1.709-2.711l-32.682-51.92L72.2,145.624l11.559,1.869
							l4.25-35.18l0.67-5.55l3.01,4.71l22.91,35.941l22.451-36.172l2.969-4.779l0.711,5.58l4.5,35.131L157.03,145.585z
							 M149.749,67.174l9.5,80.12l-15.75,2.131l-4.75-37.131l-24.129,38.881l-24.621-38.621l-4.5,37.24l-15.5-2.5l9-80.12
							l35.721,56.75L149.749,67.174z"/>
					</g>
				</g>
			</g>
		</g>
		<g>
			<g>
				<g id="XMLID_1_">
					<g>
						<polygon fill="#FFFFFF" points="647.37,73.354 614.97,145.063 602.979,142.304 616.489,112.554 616.999,111.434 
							616.22,110.474 588.47,76.003 597.38,68.663 620.438,97.313 622.448,99.804 623.81,96.903 637.14,68.493 						"/>
						<polygon fill="#FFFFFF" points="595.608,131.073 590.188,143.544 550.069,143.544 550.069,68.753 561.54,67.974 
							561.54,129.224 561.54,131.233 563.55,131.224 						"/>
						<path fill="#FFFFFF" d="M537.698,91.934c1.9,4.69,2.861,9.819,2.861,15.25c0,5.47-0.961,10.62-2.861,15.31
							c-1.889,4.681-4.719,8.92-8.389,12.601c-3.689,3.62-7.961,6.409-12.68,8.31c-4.73,1.9-9.861,2.861-15.26,2.861
							c-5.352,0-10.451-0.961-15.141-2.861c-4.689-1.889-8.93-4.689-12.609-8.3c-3.73-3.72-6.592-7.989-8.5-12.67
							c-1.91-4.69-2.881-9.819-2.881-15.25c0-5.39,0.971-10.5,2.881-15.19c1.908-4.68,4.77-8.939,8.488-12.67
							c3.691-3.649,7.932-6.449,12.611-8.33c4.699-1.879,9.799-2.83,15.15-2.83c5.398,0,10.529,0.961,15.26,2.86
							c4.719,1.9,8.99,4.69,12.66,8.3C532.979,83.003,535.81,87.253,537.698,91.934z M520.948,127.894
							c5.141-5.5,7.75-12.46,7.75-20.71c0-8.17-2.629-15.11-7.809-20.63c-5.211-5.551-11.781-8.359-19.52-8.359
							c-7.74,0-14.301,2.799-19.49,8.34c-5.16,5.5-7.781,12.449-7.781,20.649c0,8.25,2.611,15.21,7.75,20.71
							c5.18,5.54,11.74,8.35,19.521,8.35C509.188,136.243,515.778,133.434,520.948,127.894z"/>
						<path fill="#FFFFFF" d="M455.849,94.323c0,7.541-2.15,13.351-6.59,17.76c-4.369,4.361-10.379,6.57-17.84,6.57h-8.07h-2v2
							v24.01l-11.809,0.75V69.884h21.879c7.49,0,13.311,2.18,17.779,6.65C453.679,81.014,455.849,86.833,455.849,94.323z
							 M445.099,94.323c0-4.47-1.34-8.05-4-10.64c-2.639-2.569-6.289-3.88-10.859-3.88h-6.891h-2v2v24.939v2h2h6.891
							c4.641,0,8.311-1.279,10.91-3.789C443.769,102.413,445.099,98.844,445.099,94.323z"/>
						<path fill="#FFFFFF" d="M396.62,91.934c1.898,4.69,2.859,9.819,2.859,15.25c0,5.47-0.961,10.62-2.859,15.31
							c-1.891,4.681-4.721,8.92-8.391,12.601c-3.689,3.62-7.961,6.409-12.68,8.31c-4.73,1.9-9.861,2.861-15.26,2.861
							c-5.352,0-10.451-0.961-15.141-2.861c-4.689-1.889-8.939-4.689-12.609-8.3c-3.73-3.72-6.59-7.989-8.5-12.67
							c-1.91-4.69-2.881-9.819-2.881-15.25c0-5.39,0.971-10.5,2.881-15.19c1.91-4.68,4.77-8.949,8.49-12.67
							c3.689-3.649,7.93-6.449,12.609-8.33c4.699-1.879,9.789-2.83,15.15-2.83c5.398,0,10.529,0.961,15.26,2.86
							c4.719,1.9,8.99,4.69,12.66,8.3C391.899,83.003,394.729,87.253,396.62,91.934z M379.87,127.894
							c5.139-5.5,7.75-12.46,7.75-20.71c0-8.17-2.631-15.11-7.811-20.63c-5.211-5.551-11.781-8.359-19.52-8.359
							c-7.74,0-14.301,2.799-19.49,8.34c-5.16,5.489-7.781,12.439-7.781,20.649c0,8.25,2.611,15.21,7.75,20.71
							c5.17,5.54,11.74,8.35,19.521,8.35C368.108,136.243,374.688,133.434,379.87,127.894z"/>
						<polygon fill="#FFFFFF" points="313.499,69.083 313.499,144.015 269.159,99.934 265.79,96.583 265.749,101.333 
							265.39,142.073 253.62,143.454 253.62,69.264 297.97,113.144 301.39,116.534 301.37,111.714 301.249,71.163 						"/>
						<path fill="#FFFFFF" d="M239.72,91.544c1.82,4.5,2.75,9.43,2.75,14.64c0,5.25-0.93,10.2-2.75,14.7s-4.531,8.57-8.061,12.1
							c-3.539,3.471-7.641,6.16-12.17,7.98c-4.539,1.82-9.471,2.74-14.65,2.74c-5.139,0-10.029-0.92-14.539-2.74
							c-4.5-1.82-8.58-4.51-12.111-7.971c-3.568-3.58-6.318-7.67-8.148-12.17c-1.84-4.5-2.771-9.42-2.771-14.64
							c0-5.17,0.932-10.08,2.771-14.58c1.83-4.5,4.58-8.59,8.148-12.159c3.541-3.511,7.611-6.201,12.111-8
							c4.5-1.811,9.4-2.721,14.539-2.721c5.18,0,10.111,0.92,14.65,2.75c4.529,1.811,8.631,4.5,12.16,7.96
							C235.188,82.974,237.899,87.044,239.72,91.544z M231.21,106.184c0-7.88-2.541-14.569-7.531-19.89
							c-5.029-5.36-11.369-8.08-18.84-8.08c-7.469,0-13.799,2.71-18.809,8.05c-4.98,5.3-7.5,12.01-7.5,19.92
							c0,7.95,2.51,14.67,7.469,19.979c5,5.34,11.34,8.051,18.84,8.051c7.541,0,13.9-2.711,18.891-8.051
							C228.688,120.854,231.21,114.134,231.21,106.184z"/>
						<polygon fill="#FFFFFF" points="153.438,69.653 162.03,142.134 150.229,143.724 145.729,108.594 145.019,103.014 
							142.05,107.794 119.599,143.964 96.688,108.023 93.679,103.313 93.009,108.864 88.759,144.044 77.2,142.175 85.349,69.624 
							118.03,121.544 119.739,124.253 121.419,121.523 						"/>
						<linearGradient id="SVGID_3_" gradientUnits="userSpaceOnUse" x1="589.0059" y1="113.1143" x2="655.9516" y2="88.748">
							<stop  offset="0" style="stop-color:#B3B3B3"/>
							<stop  offset="1" style="stop-color:#E6E6E6"/>
						</linearGradient>
						<path fill="url(#SVGID_3_)" d="M647.37,73.354l-10.23-4.86l-13.33,28.41l-1.361,2.9l-2.01-2.49l-23.059-28.65l-8.91,7.34
							l27.75,34.471l0.779,0.96l-0.51,1.12l-13.51,29.75l11.99,2.76L647.37,73.354z M636.188,65.833l13.811,6.561l-33.879,74.98
							l-15.98-3.67l14.529-31.98l-29-36l12-9.891l24.33,30.221L636.188,65.833z"/>
						<linearGradient id="SVGID_4_" gradientUnits="userSpaceOnUse" x1="537.9688" y1="117.793" x2="587.9496" y2="99.6014">
							<stop  offset="0" style="stop-color:#B3B3B3"/>
							<stop  offset="1" style="stop-color:#E6E6E6"/>
						</linearGradient>
						<path fill="url(#SVGID_4_)" d="M590.188,143.544l5.42-12.471l-32.059,0.15l-2.01,0.01v-2.01v-61.25l-11.471,0.779v74.791
							H590.188z M598.669,129.054l-7.17,16.49h-43.43v-78.66l15.471-1.051v63.391L598.669,129.054z"/>
						<linearGradient id="SVGID_5_" gradientUnits="userSpaceOnUse" x1="475.3633" y1="116.6953" x2="527.4208" y2="97.7479">
							<stop  offset="0" style="stop-color:#B3B3B3"/>
							<stop  offset="1" style="stop-color:#E6E6E6"/>
						</linearGradient>
						<path fill="url(#SVGID_5_)" d="M501.37,136.243c-7.781,0-14.342-2.81-19.521-8.35c-5.139-5.5-7.75-12.46-7.75-20.71
							c0-8.2,2.621-15.149,7.781-20.649c5.189-5.541,11.75-8.34,19.49-8.34c7.738,0,14.309,2.809,19.52,8.359
							c5.18,5.52,7.809,12.46,7.809,20.63c0,8.25-2.609,15.21-7.75,20.71C515.778,133.434,509.188,136.243,501.37,136.243z
							 M476.099,107.184c0,7.761,2.4,14.21,7.211,19.351c4.811,5.14,10.83,7.709,18.061,7.709c7.279,0,13.318-2.569,18.119-7.709
							c4.811-5.141,7.209-11.59,7.209-19.351c0-7.681-2.42-14.101-7.26-19.26c-4.85-5.16-10.869-7.729-18.068-7.729
							c-7.201,0-13.211,2.569-18.031,7.699C478.509,93.034,476.099,99.464,476.099,107.184z"/>
						<linearGradient id="SVGID_6_" gradientUnits="userSpaceOnUse" x1="462.5664" y1="121.3486" x2="540.2704" y2="93.0667">
							<stop  offset="0" style="stop-color:#B3B3B3"/>
							<stop  offset="1" style="stop-color:#E6E6E6"/>
						</linearGradient>
						<path fill="url(#SVGID_6_)" d="M473.62,135.104c3.68,3.61,7.92,6.411,12.609,8.3c4.689,1.9,9.789,2.861,15.141,2.861
							c5.398,0,10.529-0.961,15.26-2.861c4.719-1.9,8.99-4.689,12.68-8.31c3.67-3.681,6.5-7.92,8.389-12.601
							c1.9-4.689,2.861-9.84,2.861-15.31c0-5.431-0.961-10.56-2.861-15.25c-1.889-4.681-4.719-8.931-8.408-12.61
							c-3.67-3.609-7.941-6.399-12.66-8.3c-4.73-1.899-9.861-2.86-15.26-2.86c-5.352,0-10.451,0.951-15.15,2.83
							c-4.68,1.881-8.92,4.681-12.611,8.33c-3.719,3.73-6.58,7.99-8.488,12.67c-1.91,4.69-2.881,9.801-2.881,15.19
							c0,5.431,0.971,10.56,2.881,15.25C467.028,127.114,469.89,131.384,473.62,135.104z M472.21,77.903
							c3.889-3.859,8.318-6.779,13.27-8.76c4.959-1.99,10.25-2.98,15.891-2.98c5.68,0,11.02,1,16.01,3
							c4.99,2.011,9.43,4.92,13.33,8.74c3.889,3.9,6.85,8.32,8.85,13.28c2,4.95,3,10.29,3,16c0,5.75-1,11.11-3,16.06
							c-2,4.961-4.961,9.381-8.85,13.28c-3.9,3.821-8.34,6.729-13.33,8.741c-4.99,2-10.33,3-16.01,3c-5.641,0-10.932-1-15.891-3
							c-4.951-2.012-9.381-4.92-13.27-8.741c-3.941-3.94-6.92-8.38-8.941-13.329c-2.02-4.961-3.029-10.291-3.029-16.011
							c0-5.681,1.01-10.989,3.029-15.95C465.29,86.284,468.269,81.844,472.21,77.903z"/>
						<linearGradient id="SVGID_7_" gradientUnits="userSpaceOnUse" x1="417.4287" y1="97.9741" x2="444.087" y2="88.2713">
							<stop  offset="0" style="stop-color:#B3B3B3"/>
							<stop  offset="1" style="stop-color:#E6E6E6"/>
						</linearGradient>
						<path fill="url(#SVGID_7_)" d="M439.759,103.514c2.23-2.149,3.34-5.21,3.34-9.19c0-3.93-1.129-7-3.389-9.209
							c-2.271-2.211-5.42-3.311-9.471-3.311h-6.891v24.939h6.891C434.358,106.743,437.54,105.663,439.759,103.514z M421.349,108.743
							v-2V81.804v-2h2h6.891c4.57,0,8.221,1.311,10.859,3.88c2.66,2.59,4,6.17,4,10.64c0,4.521-1.33,8.09-3.949,10.631
							c-2.6,2.51-6.27,3.789-10.91,3.789h-6.891H421.349z"/>
						<linearGradient id="SVGID_8_" gradientUnits="userSpaceOnUse" x1="395.502" y1="114.4717" x2="458.9009" y2="91.3963">
							<stop  offset="0" style="stop-color:#B3B3B3"/>
							<stop  offset="1" style="stop-color:#E6E6E6"/>
						</linearGradient>
						<path fill="url(#SVGID_8_)" d="M421.349,144.663v-24.01v-2h2h8.07c7.461,0,13.471-2.209,17.84-6.57
							c4.439-4.409,6.59-10.219,6.59-17.76c0-7.49-2.17-13.31-6.65-17.789c-4.469-4.471-10.289-6.65-17.779-6.65H409.54v75.529
							L421.349,144.663z M431.419,120.653h-8.07v25.891l-15.809,1v-79.66h23.879c7.971,0,14.371,2.42,19.201,7.24
							c4.818,4.82,7.229,11.229,7.229,19.199c0,8.021-2.389,14.41-7.17,19.18C445.89,118.273,439.47,120.653,431.419,120.653z"/>
						<linearGradient id="SVGID_9_" gradientUnits="userSpaceOnUse" x1="334.2832" y1="116.6963" x2="386.3412" y2="97.7487">
							<stop  offset="0" style="stop-color:#B3B3B3"/>
							<stop  offset="1" style="stop-color:#E6E6E6"/>
						</linearGradient>
						<path fill="url(#SVGID_9_)" d="M340.8,86.534c5.189-5.541,11.75-8.34,19.49-8.34c7.738,0,14.309,2.809,19.52,8.359
							c5.18,5.52,7.811,12.46,7.811,20.63c0,8.25-2.611,15.21-7.75,20.71c-5.182,5.54-11.762,8.35-19.58,8.35
							c-7.781,0-14.352-2.81-19.521-8.35c-5.139-5.5-7.75-12.46-7.75-20.71C333.019,98.974,335.64,92.023,340.8,86.534z
							 M378.349,87.924c-4.84-5.16-10.859-7.729-18.059-7.729c-7.201,0-13.211,2.569-18.031,7.699
							c-4.83,5.141-7.24,11.57-7.24,19.29c0,7.761,2.4,14.21,7.211,19.351c4.801,5.14,10.83,7.709,18.061,7.709
							c7.27,0,13.309-2.569,18.119-7.709c4.811-5.141,7.211-11.59,7.211-19.351C385.62,99.503,383.198,93.083,378.349,87.924z"/>
						<linearGradient id="SVGID_10_" gradientUnits="userSpaceOnUse" x1="321.4863" y1="121.3477" x2="399.1904" y2="93.0657">
							<stop  offset="0" style="stop-color:#B3B3B3"/>
							<stop  offset="1" style="stop-color:#E6E6E6"/>
						</linearGradient>
						<path fill="url(#SVGID_10_)" d="M345.149,143.403c4.689,1.9,9.789,2.861,15.141,2.861c5.398,0,10.529-0.961,15.26-2.861
							c4.719-1.9,8.99-4.689,12.68-8.31c3.67-3.681,6.5-7.92,8.391-12.601c1.898-4.689,2.859-9.84,2.859-15.31
							c0-5.431-0.961-10.56-2.859-15.25c-1.891-4.681-4.721-8.931-8.41-12.61c-3.67-3.609-7.941-6.399-12.66-8.3
							c-4.73-1.899-9.861-2.86-15.26-2.86c-5.361,0-10.451,0.951-15.15,2.83c-4.68,1.881-8.92,4.681-12.609,8.33
							c-3.721,3.721-6.58,7.99-8.49,12.67c-1.91,4.69-2.881,9.801-2.881,15.19c0,5.431,0.971,10.56,2.881,15.25
							c1.91,4.681,4.77,8.95,8.5,12.67C336.21,138.714,340.46,141.515,345.149,143.403z M344.399,69.144
							c4.949-1.99,10.25-2.98,15.891-2.98c5.68,0,11.01,1,16,3c5,2.011,9.439,4.92,13.34,8.74c3.889,3.9,6.84,8.32,8.85,13.28
							c2,4.95,3,10.29,3,16c0,5.75-1,11.11-3,16.06c-2.01,4.961-4.961,9.381-8.85,13.28c-3.9,3.821-8.34,6.729-13.34,8.741
							c-4.99,2-10.32,3-16,3c-5.641,0-10.941-1-15.891-3c-4.949-2.012-9.381-4.92-13.279-8.741c-3.932-3.94-6.91-8.38-8.932-13.329
							c-2.02-4.961-3.029-10.291-3.029-16.011c0-5.681,1.01-10.989,3.029-15.95c2.021-4.949,5-9.39,8.932-13.33
							C335.019,74.044,339.45,71.124,344.399,69.144z"/>
						<linearGradient id="SVGID_11_" gradientUnits="userSpaceOnUse" x1="242.8037" y1="121.4805" x2="324.5937" y2="91.7114">
							<stop  offset="0" style="stop-color:#B3B3B3"/>
							<stop  offset="1" style="stop-color:#E6E6E6"/>
						</linearGradient>
						<path fill="url(#SVGID_11_)" d="M313.499,144.015V69.083l-12.25,2.08l0.121,40.551l0.02,4.82l-3.42-3.391l-44.35-43.88v74.19
							l11.77-1.381l0.359-40.74l0.041-4.75l3.369,3.351L313.499,144.015z M267.37,143.845l-15.75,1.859v-81.23l47.75,47.25
							l-0.121-42.25l16.25-2.75v82.1l-47.75-47.479L267.37,143.845z"/>
						<linearGradient id="SVGID_12_" gradientUnits="userSpaceOnUse" x1="179.7471" y1="115.3594" x2="229.9734" y2="97.0785">
							<stop  offset="0" style="stop-color:#B3B3B3"/>
							<stop  offset="1" style="stop-color:#E6E6E6"/>
						</linearGradient>
						<path fill="url(#SVGID_12_)" d="M204.839,80.214c-6.93,0-12.709,2.47-17.35,7.42c-4.641,4.939-6.959,11.13-6.959,18.55
							c0,7.46,2.309,13.67,6.93,18.61c4.629,4.949,10.42,7.42,17.379,7.42c7,0,12.811-2.471,17.43-7.42
							c4.621-4.94,6.941-11.15,6.941-18.61c0-7.39-2.33-13.56-6.99-18.521C217.56,82.694,211.769,80.214,204.839,80.214z
							 M186.03,86.264c5.01-5.34,11.34-8.05,18.809-8.05c7.471,0,13.811,2.72,18.84,8.08c4.99,5.32,7.531,12.01,7.531,19.89
							c0,7.95-2.521,14.67-7.48,19.979c-4.99,5.34-11.35,8.051-18.891,8.051c-7.5,0-13.84-2.711-18.84-8.051
							c-4.959-5.31-7.469-12.029-7.469-19.979C178.53,98.273,181.05,91.563,186.03,86.264z"/>
						<linearGradient id="SVGID_13_" gradientUnits="userSpaceOnUse" x1="167.5107" y1="119.8057" x2="242.2604" y2="92.599">
							<stop  offset="0" style="stop-color:#B3B3B3"/>
							<stop  offset="1" style="stop-color:#E6E6E6"/>
						</linearGradient>
						<path fill="url(#SVGID_13_)" d="M189.55,69.583c4.77-1.909,9.859-2.859,15.289-2.859c5.461,0,10.59,0.96,15.4,2.891
							c4.801,1.93,9.07,4.729,12.82,8.409c3.75,3.74,6.59,8,8.52,12.771c1.92,4.76,2.891,9.9,2.891,15.39
							c0,5.54-0.971,10.69-2.891,15.45c-1.93,4.77-4.77,9.029-8.52,12.77c-3.75,3.68-8.02,6.48-12.82,8.41
							c-4.811,1.93-9.939,2.891-15.4,2.891c-5.43,0-10.52-0.961-15.289-2.891c-4.76-1.93-9.02-4.73-12.77-8.41
							c-3.781-3.779-6.65-8.06-8.592-12.82c-1.949-4.77-2.92-9.899-2.92-15.399c0-5.46,0.971-10.569,2.92-15.34
							c1.941-4.761,4.811-9.04,8.592-12.82C180.53,74.304,184.79,71.493,189.55,69.583z M204.839,68.724
							c-5.139,0-10.039,0.91-14.539,2.721c-4.5,1.799-8.57,4.489-12.111,8c-3.568,3.569-6.318,7.659-8.148,12.159
							c-1.84,4.5-2.771,9.41-2.771,14.58c0,5.22,0.932,10.14,2.771,14.64c1.83,4.5,4.58,8.59,8.148,12.17
							c3.531,3.461,7.611,6.15,12.111,7.971c4.51,1.82,9.4,2.74,14.539,2.74c5.18,0,10.111-0.92,14.65-2.74
							c4.529-1.82,8.631-4.51,12.17-7.98c3.529-3.529,6.24-7.6,8.061-12.1s2.75-9.45,2.75-14.7c0-5.21-0.93-10.14-2.75-14.64
							s-4.531-8.57-8.07-12.11c-3.529-3.46-7.631-6.149-12.16-7.96C214.95,69.644,210.019,68.724,204.839,68.724z"/>
						<linearGradient id="SVGID_14_" gradientUnits="userSpaceOnUse" x1="67.8701" y1="124.2588" x2="164.0418" y2="89.2552">
							<stop  offset="0" style="stop-color:#B3B3B3"/>
							<stop  offset="1" style="stop-color:#E6E6E6"/>
						</linearGradient>
						<path fill="url(#SVGID_14_)" d="M162.03,142.134l-8.592-72.48l-32.02,51.87l-1.68,2.729l-1.709-2.709l-32.682-51.92
							L77.2,142.175l11.559,1.869l4.25-35.18l0.67-5.551l3.01,4.71l22.91,35.94l22.451-36.17l2.969-4.78l0.711,5.58l4.5,35.13
							L162.03,142.134z M154.749,63.724l9.5,80.121l-15.75,2.129l-4.75-37.13l-24.129,38.88l-24.621-38.62l-4.5,37.241l-15.5-2.5
							l9-80.121l35.721,56.75L154.749,63.724z"/>
					</g>
				</g>
			</g>
		</g>
	</g>
</g>
</svg>
